<?xml version="1.0" encoding="UTF-8" standalone="no"?>
<!-- Created with Inkscape (http://www.inkscape.org/) -->

<svg
   xmlns:dc="http://purl.org/dc/elements/1.1/"
   xmlns:cc="http://creativecommons.org/ns#"
   xmlns:rdf="http://www.w3.org/1999/02/22-rdf-syntax-ns#"
   xmlns:svg="http://www.w3.org/2000/svg"
   xmlns="http://www.w3.org/2000/svg"
   xmlns:sodipodi="http://sodipodi.sourceforge.net/DTD/sodipodi-0.dtd"
   xmlns:inkscape="http://www.inkscape.org/namespaces/inkscape"
   width="1000"
   height="1000"
   viewBox="0 0 1000 1000"
   id="svg"
   version="1.1"
   inkscape:version="0.91 r13725"
   sodipodi:docname="base.svg"
   inkscape:export-filename="/home/nathan/git/avatar/base/base.png"
   inkscape:export-xdpi="90"
   inkscape:export-ydpi="90"
   style="enable-background:new">
  <defs
     id="defs4" />
  <sodipodi:namedview
     id="base"
     pagecolor="#ffffff"
     bordercolor="#666666"
     borderopacity="1.0"
     inkscape:pageopacity="0"
     inkscape:pageshadow="2"
     inkscape:zoom="1.5174341"
     inkscape:cx="489.42342"
     inkscape:cy="428.18114"
     inkscape:document-units="px"
     inkscape:current-layer="layer6"
     showgrid="false"
     units="px"
     inkscape:window-width="1863"
     inkscape:window-height="1056"
     inkscape:window-x="57"
     inkscape:window-y="24"
     inkscape:window-maximized="1" />
  <metadata
     id="metadata7">
    <rdf:RDF>
      <cc:Work
         rdf:about="">
        <dc:format>image/svg+xml</dc:format>
        <dc:type
           rdf:resource="http://purl.org/dc/dcmitype/StillImage" />
        <dc:title />
      </cc:Work>
    </rdf:RDF>
  </metadata>
  <g
     inkscape:groupmode="layer"
     id="layer10"
     inkscape:label="Background"
     transform="translate(0,-160)"
     style="display:inline">
    <path
       style="fill:#33e7df;fill-opacity:1;fill-rule:evenodd;stroke:none;stroke-width:1px;stroke-linecap:butt;stroke-linejoin:miter;stroke-opacity:1"
       d="m 0,160 0,1000 1000,0 0,-1000 z"
       id="path4368"
       inkscape:connector-curvature="0"
       sodipodi:nodetypes="ccccc" />
  </g>
  <g
     inkscape:groupmode="layer"
     id="layer6"
     inkscape:label="Neck"
     style="display:inline;opacity:1"
     transform="translate(0,-160)">
    <path
       style="fill:#f0c4ab;fill-opacity:1;fill-rule:evenodd;stroke:none;stroke-width:1px;stroke-linecap:butt;stroke-linejoin:miter;stroke-opacity:1"
       d="m 318.77536,694.37651 c 0,0 -2.98476,36.36541 -6.97012,54.10816 -3.83907,17.09147 -7.42403,33.64303 -16.22087,49.9848 -17.09636,31.7597 -68.39146,86.55469 -68.39146,86.55469 l 63.96232,87.39981 91.45032,56.04873 152.90298,62.2907 30.09699,-58.4514 59.36973,-99.16319 -151.71234,-153.62869 -63.83019,-97.17478 z"
       id="path4315"
       inkscape:connector-curvature="0"
       sodipodi:nodetypes="cssccccccccc" />
  </g>
  <g
     inkscape:groupmode="layer"
     id="layer8"
     inkscape:label="Shirt"
     transform="translate(0,-160)">
    <path
       style="fill:#5cb847;fill-opacity:1;fill-rule:evenodd;stroke:#2bff5b;stroke-width:0.86188322px;stroke-linecap:butt;stroke-linejoin:miter;stroke-opacity:1"
       d="m 0.43094161,934.59757 c 0,0 171.44573839,-73.55709 223.73874839,-92.03376 14.99264,-5.29734 43.68523,-4.82057 43.68523,-4.82057 0,0 -10.76019,13.31554 -19.49044,22.98826 -4.0085,4.44124 -1.35902,9.47945 0.93546,15.09311 37.01909,90.57049 167.596,166.73049 237.2233,180.34839 22.75215,3.9558 47.25663,10.6364 61.9947,-7.15 13.29432,-16.044 52.80652,-80.98078 52.80652,-80.98078 l 89.63012,-23.21868 c 0,0 115.81525,38.97487 155.59497,76.12676 17.55551,16.3957 93.12982,138.6187 93.12982,138.6187 l -939.24842839,0 z"
       id="path4322"
       inkscape:connector-curvature="0"
       sodipodi:nodetypes="cscsscsccsccc" />
  </g>
  <g
     inkscape:groupmode="layer"
     id="layer2"
     inkscape:label="Face"
     style="display:inline;opacity:1"
     transform="translate(0,-160)">
    <path
       style="fill:#f3ceba;fill-opacity:1;fill-rule:evenodd;stroke:none;stroke-width:1px;stroke-linecap:butt;stroke-linejoin:miter;stroke-opacity:1"
       d="M 836.1437,465.65721 C 791.59421,368.33372 614.21601,286.33507 521.93269,326.51781 c -32.23745,14.03709 -3.26069,74.99773 -17.51486,102.55561 -18.19029,35.16766 -30.76421,35.50473 -49.67751,70.28856 -14.12664,25.98061 -25.5093,103.58769 -25.5093,103.58769 l -44.73407,20.20523 -12.71243,93.14088 c 0,0 -11.07966,71.00288 4.78721,100.5747 18.77596,34.99367 53.71419,55.60343 87.15794,79.8613 35.4772,25.7328 70.07245,54.3706 110.71333,65.41329 41.61206,11.30657 78.84793,11.81689 111.70152,-4.78927 25.41184,-12.84465 23.24146,-38.48196 36.70194,-60.66411 19.06397,-31.41645 32.10094,-48.10907 54.25502,-77.42657 10.81628,-14.31367 27.62781,-40.71403 31.87627,-58.69952 3.51387,-14.87569 -0.30806,-37.18529 1.63418,-52.25194 1.90499,-14.77757 -6.24405,-31.17261 0,-44.69988 7.90949,-17.13532 28.8337,-21.607 35.80294,-39.14612 5.99802,-15.0948 2.58423,-25.16594 0.86644,-39.05099 -4.92253,-39.78862 13.02955,-66.9635 -11.13761,-119.75946 z"
       id="path3404"
       inkscape:connector-curvature="0"
       sodipodi:nodetypes="sssscccssssssssssss" />
  </g>
  <g
     inkscape:groupmode="layer"
     id="layer11"
     inkscape:label="Eyes"
     style="display:none"
     transform="translate(0,-160)">
    <ellipse
       style="display:inline;opacity:1;fill:#473627;fill-opacity:1;stroke:none;stroke-opacity:1"
       id="path4405"
       cx="703.16071"
       cy="526.05804"
       rx="18.452202"
       ry="16.47518" />
    <ellipse
       style="display:inline;opacity:1;fill:#473627;fill-opacity:1;stroke:none;stroke-opacity:1"
       id="path4407"
       cx="912.06598"
       cy="584.35718"
       rx="17.134186"
       ry="15.48667" />
    <path
       style="display:inline;opacity:1;fill:#473627;fill-opacity:1;fill-rule:evenodd;stroke:none;stroke-width:1px;stroke-linecap:butt;stroke-linejoin:miter;stroke-opacity:1"
       d="m 664.93827,514.17294 c 38.22242,-12.30147 70.62759,-7.56107 92.92002,26.36029 -27.0193,-22.18658 -52.34843,-29.01976 -92.92002,-26.36029 z"
       id="path4409"
       inkscape:connector-curvature="0"
       sodipodi:nodetypes="ccc" />
    <ellipse
       style="display:inline;opacity:1;fill:#000000;fill-opacity:1;stroke:none;stroke-opacity:1"
       id="path4411"
       cx="702.9436"
       cy="526.37219"
       rx="6.5238385"
       ry="6.1743469" />
    <ellipse
       style="display:inline;opacity:1;fill:#000000;fill-opacity:1;stroke:none;stroke-opacity:1"
       id="path4411-3"
       cx="910.17242"
       cy="584.50421"
       rx="6.5238385"
       ry="6.1743469" />
    <path
       style="display:inline;opacity:1;fill:#473627;fill-opacity:1;fill-rule:evenodd;stroke:none;stroke-width:1px;stroke-linecap:butt;stroke-linejoin:miter;stroke-opacity:1"
       d="m 880.62404,569.55573 c 27.03869,-6.65524 44.53196,-11.90268 57.73788,13.8951 -17.46653,-16.20541 -31.51051,-15.8376 -57.73788,-13.8951 z"
       id="path4409-5"
       inkscape:connector-curvature="0"
       sodipodi:nodetypes="ccc" />
  </g>
  <g
     inkscape:groupmode="layer"
     id="layer3"
     inkscape:label="Hair"
     style="display:inline;opacity:1"
     transform="translate(0,-160)">
    <path
       style="opacity:1;fill:#594431;fill-opacity:1;fill-rule:evenodd;stroke:none;stroke-width:1px;stroke-linecap:butt;stroke-linejoin:miter;stroke-opacity:1"
       d="m 313.68391,527.51457 c 0,0 2.12463,-91.91769 13.57802,-140.70397 10.33581,-44.02588 45.2066,-86.47802 89.47514,-101.11502 40.51134,-42.79279 106.79517,-52.80022 167.59267,-52.62006 69.29641,0.20535 141.8485,16.80851 197.82632,57.67364 22.29719,16.27746 37.22543,41.93793 47.93951,67.38707 11.60309,40.61054 9.30078,53.96424 6.3825,107.75142 0,0 -46.37179,-79.96676 -139.48376,-108.05819 -45.17569,-13.62929 -64.64114,-29.63198 -167.35731,-24.1988 -18.91771,15.23851 -7.0604,76.25639 -24.36892,111.40492 -10.98876,22.31495 -32.33455,27.31995 -45.33833,49.089 -19.55467,32.7356 -13.03217,75.92874 -30.94828,109.27634 -6.31537,11.75491 -13.97796,32.2185 -13.97796,32.2185 0,0 -63.63956,-14.44289 -78.86691,-33.43268 -16.75615,-20.89632 -22.45269,-74.67217 -22.45269,-74.67217 z"
       id="path3411"
       inkscape:connector-curvature="0"
       sodipodi:nodetypes="cscssccscssscsc" />
    <path
       style="fill:#36291e;fill-opacity:1;fill-rule:evenodd;stroke:none;stroke-width:1px;stroke-linecap:butt;stroke-linejoin:miter;stroke-opacity:1"
       d="m 629.83012,319.87101 c 0,0 -12.14172,-35.28748 33.8774,-59.29302 -31.48676,20.00462 -33.8774,59.29302 -33.8774,59.29302 z"
       id="path4370"
       inkscape:connector-curvature="0"
       sodipodi:nodetypes="ccc" />
    <path
       style="display:inline;opacity:1;fill:#36291e;fill-opacity:1;fill-rule:evenodd;stroke:none;stroke-width:1px;stroke-linecap:butt;stroke-linejoin:miter;stroke-opacity:1"
       d="m 673.55177,332.22774 c 0,0 -6.64086,-34.1798 37.98523,-59.93575 -29.96955,23.17193 -37.98523,59.93575 -37.98523,59.93575 z"
       id="path4370-3"
       inkscape:connector-curvature="0"
       sodipodi:nodetypes="ccc" />
    <path
       style="display:inline;opacity:1;fill:#36291e;fill-opacity:1;fill-rule:evenodd;stroke:none;stroke-width:1px;stroke-linecap:butt;stroke-linejoin:miter;stroke-opacity:1"
       d="m 718.91259,351.20472 c 0,0 13.32335,-42.63819 38.8165,-55.82221 -41.47787,11.91867 -38.8165,55.82221 -38.8165,55.82221 z"
       id="path4370-6"
       inkscape:connector-curvature="0"
       sodipodi:nodetypes="ccc" />
    <path
       style="display:inline;opacity:1;fill:#36291e;fill-opacity:1;fill-rule:evenodd;stroke:none;stroke-width:1px;stroke-linecap:butt;stroke-linejoin:miter;stroke-opacity:1"
       d="m 762.34402,371.72427 c -0.34703,-0.34703 9.054,-32.06167 32.51516,-44.55813 -33.45896,6.93635 -32.51516,44.55813 -32.51516,44.55813 z"
       id="path4370-7"
       inkscape:connector-curvature="0"
       sodipodi:nodetypes="ccc" />
    <path
       style="display:inline;opacity:1;fill:#36291e;fill-opacity:1;fill-rule:evenodd;stroke:none;stroke-width:1px;stroke-linecap:butt;stroke-linejoin:miter;stroke-opacity:1"
       d="m 584.6702,319.93528 c 0,0 -4.32971,-41.73992 16.45787,-60.62671 -32.01609,18.23163 -16.45787,60.62671 -16.45787,60.62671 z"
       id="path4370-5"
       inkscape:connector-curvature="0"
       sodipodi:nodetypes="ccc" />
  </g>
  <g
     inkscape:groupmode="layer"
     id="layer4"
     inkscape:label="Glasses"
     style="display:inline;opacity:1"
     transform="translate(0,-160)">
    <path
       style="display:inline;opacity:1;fill:#000000;fill-opacity:1;fill-rule:evenodd;stroke:none;stroke-width:1px;stroke-linecap:butt;stroke-linejoin:miter;stroke-opacity:1"
       d="m 351.64719,547.02648 38.49721,13.87808 29.73463,10.92764 c 46.42303,7.90017 93.10464,14.92793 138.19663,22.9578 0,0 4.78092,-19.19764 11.08334,-25.38616 4.42835,-4.34831 11.39314,-6.10038 17.59806,-6.07092 44.15144,0.20969 83.50442,20.48936 119.50172,37.18332 14.12321,6.54973 8.99536,16.69699 8.99536,16.69699 l -28.37027,42.64714 2.63713,2.23654 c 0,0 19.72494,-31.52763 29.52482,-42.30454 7.47876,-4.08176 23.27121,-1.85659 29.40941,6.02726 0.78251,13.68852 2.10675,50.48236 2.10675,50.48236 l 2.35919,-0.039 c 0,0 -0.99536,-36.00315 -0.49661,-49.71181 2.66867,-5.27288 9.53314,-9.24784 15.36974,-8.66686 51.41632,5.11803 74.52751,12.67907 102.5541,28.53327 5.81404,3.28892 4.85463,9.71345 4.85463,9.71345 l -60.13387,0.37572 c 0,0 -3.98164,6.35451 -5.05641,8.63146 -1.00445,2.12799 -1.70201,10.45996 -1.70201,10.45996 l 70.74304,6.43691 c 0,0 0.96838,-19.74866 0.61137,-28.9395 -1.58638,-4.64273 -2.36052,-6.39066 -5.466,-8.30293 -12.49576,-7.69458 -26.01789,-13.82348 -40.21685,-18.17099 -20.22422,-6.19235 -40.7846,-9.38359 -61.53548,-11.68604 -6.03465,-0.66958 -12.17959,0.14233 -18.20487,-0.60709 -9.44929,-1.1753 -19.03457,-2.63102 -27.91415,-6.07091 -9.11605,-3.5315 -15.57093,-10.20555 -25.37973,-14.70112 -26.22775,-12.02069 -32.28687,-15.79784 -50.66429,-22.01002 -13.46349,-4.55109 -40.59629,-14.47106 -75.98617,-10.68092 -1.85431,0.19859 -6.16435,2.71936 -6.16435,2.71936 C 496.32025,549.78769 409.0126,545.30468 335.92899,537.228 c 9.2125,4.25395 6.91596,4.75449 15.7182,9.79847 z"
       id="path4304"
       inkscape:connector-curvature="0"
       sodipodi:nodetypes="ccccsssccccccccssccscccssssssssccc" />
  </g>
  <g
     inkscape:groupmode="layer"
     id="layer7"
     inkscape:label="Ear"
     style="display:inline;opacity:1"
     transform="translate(0,-160)">
    <path
       style="fill:#f3ceba;fill-opacity:1;fill-rule:evenodd;stroke:none;stroke-width:1px;stroke-linecap:butt;stroke-linejoin:miter;stroke-opacity:1"
       d="m 372.89225,715.66241 c -22.80706,25.82103 -36.10494,2.46308 -46.25375,-7.40379 -23.07822,-22.43709 -41.95557,-44.95688 -50.87914,-82.82993 -5.66022,-24.02286 -14.39982,-57.00972 0.92507,-76.3516 11.96704,-15.10387 18.5751,-28.76976 57.8172,-15.27032 11.40697,3.92404 24.02201,14.43326 32.37764,23.13685 11.43498,11.91121 15.82106,16.15237 19.88912,31.46612 10.7565,40.49167 -0.0503,94.34431 -13.87614,127.25267 z"
       id="path4319"
       inkscape:connector-curvature="0"
       sodipodi:nodetypes="cssssssc" />
  </g>
  <g
     inkscape:groupmode="layer"
     id="layer5"
     inkscape:label="Lenses"
     style="display:inline"
     transform="translate(0,-160)">
    <path
       style="display:inline;opacity:1;fill:#000000;fill-opacity:0.09554138;fill-rule:evenodd;stroke:none;stroke-width:1px;stroke-linecap:butt;stroke-linejoin:miter;stroke-opacity:1"
       d="m 553.91853,611.90891 c -0.5395,9.92337 0.44533,16.0077 6.80939,21.05629 27.05339,21.46139 59.70357,30.63569 92.73152,38.02516 8.2726,1.85086 25.45956,1.06832 33.44773,-11.25313 9.46468,-12.56348 18.52884,-26.89699 27.96059,-41.26371 2.91128,-4.60112 4.60212,-11.30426 -4.4554,-16.28188 -16.47491,-8.87416 -61.40997,-27.06929 -61.40997,-27.06929 0,0 -49.04199,-20.74476 -70.44624,-11.64288 -4.45731,1.8954 -9.72949,3.61816 -13.7373,12.6011 -5.0397,11.29575 -10.78573,27.29833 -10.90032,35.82834 z"
       id="path4308"
       inkscape:connector-curvature="0"
       sodipodi:nodetypes="cssccccssc" />
    <path
       style="fill:#000000;fill-opacity:0.09411765;fill-rule:evenodd;stroke:none;stroke-width:1px;stroke-linecap:butt;stroke-linejoin:miter;stroke-opacity:1"
       d="m 751.63186,626.59216 c -2.24574,18.44895 1.34354,37.98642 1.44278,54.67684 0.0894,15.03071 13.62912,17.88852 19.56459,19.9794 24.84241,8.75123 39.81437,8.89308 64.42614,10.98751 9.44739,-0.14869 24.65566,-2.67336 29.9299,-9.88738 8.82482,-12.07018 9.98622,-55.36744 9.98622,-55.36744 0,0 -33.14999,-15.51654 -51.51191,-20.77916 -15.37354,-4.40614 -35.01944,-10.35195 -50.91526,-8.6004 -5.51645,-0.26242 -23.89977,-2.49718 -22.92246,8.99063 z"
       id="path4312"
       inkscape:connector-curvature="0"
       sodipodi:nodetypes="csscscscc" />
  </g>
</svg>
